ffmpeg started on 2025-05-24 at 15:49:09
Report written to "D:\Convert\FFMetrics\reports\psnr_report-6.txt"
Log level: 32
Command line:
ffmpeg -hide_banner -nostdin -i "G:\\\xc0\xed\xe8\xec\xe5\\\xce\xed\xe3\xee\xe8\xed\xe3\xe8\\!_33_\xc7\xe8\xec\xe0_2024\\DreamCast\\\xd1\xf2\xe0\xed\xee\xe2\xff\xf1\xfc \xe2\xee\xeb\xf8\xe5\xe1\xed\xe8\xf6\xe5\xe9\\[DC] Mahou Shoujo ni Akogarete - 11_Telegram_HEVC.mkv" -i "G:\\\xc0\xed\xe8\xec\xe5\\\xce\xed\xe3\xee\xe8\xed\xe3\xe8\\!_33_\xc7\xe8\xec\xe0_2024\\DreamCast\\\xd1\xf2\xe0\xed\xee\xe2\xff\xf1\xfc \xe2\xee\xeb\xf8\xe5\xe1\xed\xe8\xf6\xe5\xe9\\[DC] Mahou Shoujo ni Akogarete - 11_Telegram.mp4" -lavfi "[0:v]settb=AVTB,setpts=PTS-STARTPTS,format=pix_fmts=yuv420p10,fps=24000/1001,scale=1920:1080:flags=bicubic[main];[1:v]settb=AVTB,setpts=PTS-STARTPTS,format=pix_fmts=yuv420p,fps=24000/1001,scale=1920:1080:flags=bicubic[ref];[main][ref]psnr=eof_action=endall:stats_file='D\\:/Convert/FFMetrics/logs/psnr_logfile-6.txt'" -f null -
Input #0, matroska,webm, from 'G:\Аниме\Онгоинги\!_33_Зима_2024\DreamCast\Становясь волшебницей\[DC] Mahou Shoujo ni Akogarete - 11_Telegram_HEVC.mkv':
  Metadata:
    COMPATIBLE_BRANDS: isomiso2avc1mp41
    MAJOR_BRAND     : isom
    MINOR_VERSION   : 512
    ENCODER         : Lavf61.7.100
  Duration: 00:23:47.93, start: -0.021000, bitrate: 1240 kb/s
  Stream #0:0: Video: hevc (Main 10), yuv420p10le(tv, bt709, progressive), 1920x1080 [SAR 1:1 DAR 16:9], 23.98 fps, 23.98 tbr, 1k tbn (default)
      Metadata:
        HANDLER_NAME    : VideoHandler
        VENDOR_ID       : [0][0][0][0]
        ENCODER         : Lavc61.19.100 libx265
        BPS             : 1042255
        DURATION        : 00:23:47.801708333
        NUMBER_OF_FRAMES: 34233
        NUMBER_OF_BYTES : 186016728
        _STATISTICS_WRITING_APP: mkvpropedit v66.0.0 ('Josie') 64-bit
        _STATISTICS_WRITING_DATE_UTC: 2025-05-24 10:55:48
        _STATISTICS_TAGS: BPS DURATION NUMBER_OF_FRAMES NUMBER_OF_BYTES
  Stream #0:1: Audio: aac (LC), 48000 Hz, stereo, fltp (default)
      Metadata:
        HANDLER_NAME    : SoundHandler
        VENDOR_ID       : [0][0][0][0]
        ENCODER         : Lavc61.19.100 aac
        BPS             : 193912
        DURATION        : 00:23:47.925000000
        NUMBER_OF_FRAMES: 66935
        NUMBER_OF_BYTES : 34611594
        _STATISTICS_WRITING_APP: mkvpropedit v66.0.0 ('Josie') 64-bit
        _STATISTICS_WRITING_DATE_UTC: 2025-05-24 10:55:48
        _STATISTICS_TAGS: BPS DURATION NUMBER_OF_FRAMES NUMBER_OF_BYTES
Input #1, mov,mp4,m4a,3gp,3g2,mj2, from 'G:\Аниме\Онгоинги\!_33_Зима_2024\DreamCast\Становясь волшебницей\[DC] Mahou Shoujo ni Akogarete - 11_Telegram.mp4':
  Metadata:
    major_brand     : isom
    minor_version   : 512
    compatible_brands: isomiso2avc1mp41
    encoder         : Lavf60.16.100
  Duration: 00:23:47.88, start: 0.000000, bitrate: 3683 kb/s
  Stream #1:0[0x1](und): Video: h264 (High) (avc1 / 0x31637661), yuv420p(tv, bt709, progressive), 1920x1080 [SAR 1:1 DAR 16:9], 3535 kb/s, 23.98 fps, 23.98 tbr, 24k tbn (default)
      Metadata:
        handler_name    : VideoHandler
        vendor_id       : [0][0][0][0]
        encoder         : Lavc60.31.102 h264_qsv
  Stream #1:1[0x2](und): Audio: aac (HE-AACv2) (mp4a / 0x6134706D), 48000 Hz, stereo, fltp, 144 kb/s (default)
      Metadata:
        handler_name    : SoundHandler
        vendor_id       : [0][0][0][0]
Stream mapping:
  Stream #0:0 (hevc) -> settb:default
  Stream #1:0 (h264) -> settb:default
  psnr:default -> Stream #0:0 (wrapped_avframe)
  Stream #0:1 -> #0:1 (aac (native) -> pcm_s16le (native))
Output #0, null, to 'pipe:':
  Metadata:
    COMPATIBLE_BRANDS: isomiso2avc1mp41
    MAJOR_BRAND     : isom
    MINOR_VERSION   : 512
    encoder         : Lavf61.7.100
  Stream #0:0: Video: wrapped_avframe, yuv420p10le(tv, bt709, progressive), 1920x1080 [SAR 1:1 DAR 16:9], q=2-31, 200 kb/s, 23.98 fps, 23.98 tbn
      Metadata:
        encoder         : Lavc61.19.100 wrapped_avframe
  Stream #0:1: Audio: pcm_s16le, 48000 Hz, stereo, s16, 1536 kb/s (default)
      Metadata:
        HANDLER_NAME    : SoundHandler
        VENDOR_ID       : [0][0][0][0]
        _STATISTICS_TAGS: BPS DURATION NUMBER_OF_FRAMES NUMBER_OF_BYTES
        BPS             : 193912
        DURATION        : 00:23:47.925000000
        NUMBER_OF_FRAMES: 66935
        NUMBER_OF_BYTES : 34611594
        _STATISTICS_WRITING_APP: mkvpropedit v66.0.0 ('Josie') 64-bit
        _STATISTICS_WRITING_DATE_UTC: 2025-05-24 10:55:48
        encoder         : Lavc61.19.100 pcm_s16le
frame=  191 fps=0.0 q=-0.0 size=N/A time=00:00:07.96 bitrate=N/A speed=15.4x    frame=  451 fps=438 q=-0.0 size=N/A time=00:00:18.81 bitrate=N/A speed=18.3x    frame=  727 fps=467 q=-0.0 size=N/A time=00:00:30.32 bitrate=N/A speed=19.5x    frame=  977 fps=473 q=-0.0 size=N/A time=00:00:40.74 bitrate=N/A speed=19.7x    frame= 1178 fps=457 q=-0.0 size=N/A time=00:00:49.13 bitrate=N/A speed=19.1x    frame= 1380 fps=445 q=-0.0 size=N/A time=00:00:57.55 bitrate=N/A speed=18.6x    frame= 1629 fps=451 q=-0.0 size=N/A time=00:01:07.94 bitrate=N/A speed=18.8x    frame= 1816 fps=441 q=-0.0 size=N/A time=00:01:15.74 bitrate=N/A speed=18.4x    frame= 2051 fps=441 q=-0.0 size=N/A time=00:01:25.54 bitrate=N/A speed=18.4x    frame= 2255 fps=437 q=-0.0 size=N/A time=00:01:34.05 bitrate=N/A speed=18.2x    frame= 2419 fps=427 q=-0.0 size=N/A time=00:01:40.89 bitrate=N/A speed=17.8x    frame= 2626 fps=424 q=-0.0 size=N/A time=00:01:49.52 bitrate=N/A speed=17.7x    frame= 2800 fps=418 q=-0.0 size=N/A time=00:01:56.78 bitrate=N/A speed=17.4x    frame= 2940 fps=407 q=-0.0 size=N/A time=00:02:02.62 bitrate=N/A speed=  17x    frame= 3159 fps=408 q=-0.0 size=N/A time=00:02:11.75 bitrate=N/A speed=  17x    frame= 3400 fps=412 q=-0.0 size=N/A time=00:02:21.80 bitrate=N/A speed=17.2x    frame= 3601 fps=411 q=-0.0 size=N/A time=00:02:30.19 bitrate=N/A speed=17.1x    frame= 3800 fps=409 q=-0.0 size=N/A time=00:02:38.49 bitrate=N/A speed=17.1x    frame= 3998 fps=408 q=-0.0 size=N/A time=00:02:46.74 bitrate=N/A speed=  17x    frame= 4186 fps=406 q=-0.0 size=N/A time=00:02:54.59 bitrate=N/A speed=16.9x    frame= 4390 fps=405 q=-0.0 size=N/A time=00:03:03.09 bitrate=N/A speed=16.9x    frame= 4647 fps=410 q=-0.0 size=N/A time=00:03:13.81 bitrate=N/A speed=17.1x    frame= 4900 fps=413 q=-0.0 size=N/A time=00:03:24.37 bitrate=N/A speed=17.2x    frame= 5148 fps=416 q=-0.0 size=N/A time=00:03:34.71 bitrate=N/A speed=17.3x    frame= 5398 fps=419 q=-0.0 size=N/A time=00:03:45.14 bitrate=N/A speed=17.5x    frame= 5635 fps=420 q=-0.0 size=N/A time=00:03:55.02 bitrate=N/A speed=17.5x    frame= 5883 fps=423 q=-0.0 size=N/A time=00:04:05.37 bitrate=N/A speed=17.6x    frame= 6138 fps=425 q=-0.0 size=N/A time=00:04:16.00 bitrate=N/A speed=17.7x    frame= 6384 fps=427 q=-0.0 size=N/A time=00:04:26.26 bitrate=N/A speed=17.8x    frame= 6583 fps=426 q=-0.0 size=N/A time=00:04:34.56 bitrate=N/A speed=17.7x    frame= 6760 fps=423 q=-0.0 size=N/A time=00:04:41.94 bitrate=N/A speed=17.6x    frame= 6921 fps=419 q=-0.0 size=N/A time=00:04:48.66 bitrate=N/A speed=17.5x    frame= 7127 fps=419 q=-0.0 size=N/A time=00:04:57.25 bitrate=N/A speed=17.5x    frame= 7383 fps=421 q=-0.0 size=N/A time=00:05:07.93 bitrate=N/A speed=17.6x    frame= 7602 fps=421 q=-0.0 size=N/A time=00:05:17.06 bitrate=N/A speed=17.6x    frame= 7849 fps=423 q=-0.0 size=N/A time=00:05:27.36 bitrate=N/A speed=17.6x    frame= 8086 fps=424 q=-0.0 size=N/A time=00:05:37.25 bitrate=N/A speed=17.7x    frame= 8299 fps=423 q=-0.0 size=N/A time=00:05:46.13 bitrate=N/A speed=17.7x    frame= 8531 fps=424 q=-0.0 size=N/A time=00:05:55.81 bitrate=N/A speed=17.7x    frame= 8756 fps=425 q=-0.0 size=N/A time=00:06:05.19 bitrate=N/A speed=17.7x    frame= 9022 fps=427 q=-0.0 size=N/A time=00:06:16.29 bitrate=N/A speed=17.8x    frame= 9263 fps=428 q=-0.0 size=N/A time=00:06:26.34 bitrate=N/A speed=17.8x    frame= 9436 fps=426 q=-0.0 size=N/A time=00:06:33.55 bitrate=N/A speed=17.8x    frame= 9671 fps=426 q=-0.0 size=N/A time=00:06:43.36 bitrate=N/A speed=17.8x    frame= 9905 fps=427 q=-0.0 size=N/A time=00:06:53.12 bitrate=N/A speed=17.8x    frame=10150 fps=428 q=-0.0 size=N/A time=00:07:03.33 bitrate=N/A speed=17.9x    frame=10411 fps=429 q=-0.0 size=N/A time=00:07:14.22 bitrate=N/A speed=17.9x    frame=10688 fps=432 q=-0.0 size=N/A time=00:07:25.77 bitrate=N/A speed=  18x    frame=10912 fps=432 q=-0.0 size=N/A time=00:07:35.12 bitrate=N/A speed=  18x    frame=11152 fps=433 q=-0.0 size=N/A time=00:07:45.13 bitrate=N/A speed=  18x    frame=11386 fps=433 q=-0.0 size=N/A time=00:07:54.89 bitrate=N/A speed=18.1x    frame=11628 fps=434 q=-0.0 size=N/A time=00:08:04.98 bitrate=N/A speed=18.1x    frame=11862 fps=434 q=-0.0 size=N/A time=00:08:14.74 bitrate=N/A speed=18.1x    frame=12084 fps=434 q=-0.0 size=N/A time=00:08:24.00 bitrate=N/A speed=18.1x    frame=12301 fps=434 q=-0.0 size=N/A time=00:08:33.05 bitrate=N/A speed=18.1x    frame=12560 fps=435 q=-0.0 size=N/A time=00:08:43.85 bitrate=N/A speed=18.1x    frame=12783 fps=435 q=-0.0 size=N/A time=00:08:53.15 bitrate=N/A speed=18.1x    frame=13038 fps=436 q=-0.0 size=N/A time=00:09:03.79 bitrate=N/A speed=18.2x    frame=13286 fps=437 q=-0.0 size=N/A time=00:09:14.13 bitrate=N/A speed=18.2x    frame=13510 fps=437 q=-0.0 size=N/A time=00:09:23.47 bitrate=N/A speed=18.2x    frame=13747 fps=437 q=-0.0 size=N/A time=00:09:33.36 bitrate=N/A speed=18.2x    frame=13978 fps=437 q=-0.0 size=N/A time=00:09:42.99 bitrate=N/A speed=18.2x    frame=14230 fps=438 q=-0.0 size=N/A time=00:09:53.50 bitrate=N/A speed=18.3x    frame=14442 fps=438 q=-0.0 size=N/A time=00:10:02.35 bitrate=N/A speed=18.2x    frame=14675 fps=438 q=-0.0 size=N/A time=00:10:12.06 bitrate=N/A speed=18.3x    frame=14941 fps=439 q=-0.0 size=N/A time=00:10:23.16 bitrate=N/A speed=18.3x    frame=15147 fps=438 q=-0.0 size=N/A time=00:10:31.75 bitrate=N/A speed=18.3x    frame=15389 fps=439 q=-0.0 size=N/A time=00:10:41.84 bitrate=N/A speed=18.3x    frame=15612 fps=439 q=-0.0 size=N/A time=00:10:51.15 bitrate=N/A speed=18.3x    frame=15823 fps=438 q=-0.0 size=N/A time=00:10:59.95 bitrate=N/A speed=18.3x    frame=16062 fps=439 q=-0.0 size=N/A time=00:11:09.91 bitrate=N/A speed=18.3x    frame=16344 fps=440 q=-0.0 size=N/A time=00:11:21.68 bitrate=N/A speed=18.4x    frame=16616 fps=441 q=-0.0 size=N/A time=00:11:33.02 bitrate=N/A speed=18.4x    frame=16871 fps=442 q=-0.0 size=N/A time=00:11:43.66 bitrate=N/A speed=18.4x    frame=17149 fps=443 q=-0.0 size=N/A time=00:11:55.25 bitrate=N/A speed=18.5x    frame=17428 fps=445 q=-0.0 size=N/A time=00:12:06.89 bitrate=N/A speed=18.5x    frame=17683 fps=445 q=-0.0 size=N/A time=00:12:17.52 bitrate=N/A speed=18.6x    frame=17957 fps=447 q=-0.0 size=N/A time=00:12:28.95 bitrate=N/A speed=18.6x    frame=18239 fps=448 q=-0.0 size=N/A time=00:12:40.71 bitrate=N/A speed=18.7x    frame=18522 fps=449 q=-0.0 size=N/A time=00:12:52.52 bitrate=N/A speed=18.7x    frame=18760 fps=449 q=-0.0 size=N/A time=00:13:02.44 bitrate=N/A speed=18.7x    frame=18988 fps=449 q=-0.0 size=N/A time=00:13:11.95 bitrate=N/A speed=18.7x    frame=19178 fps=448 q=-0.0 size=N/A time=00:13:19.88 bitrate=N/A speed=18.7x    frame=19403 fps=448 q=-0.0 size=N/A time=00:13:29.26 bitrate=N/A speed=18.7x    frame=19618 fps=448 q=-0.0 size=N/A time=00:13:38.23 bitrate=N/A speed=18.7x    frame=19856 fps=448 q=-0.0 size=N/A time=00:13:48.16 bitrate=N/A speed=18.7x    frame=20135 fps=449 q=-0.0 size=N/A time=00:13:59.79 bitrate=N/A speed=18.7x    frame=20371 fps=449 q=-0.0 size=N/A time=00:14:09.64 bitrate=N/A speed=18.7x    frame=20627 fps=449 q=-0.0 size=N/A time=00:14:20.31 bitrate=N/A speed=18.7x    frame=20893 fps=450 q=-0.0 size=N/A time=00:14:31.41 bitrate=N/A speed=18.8x    frame=21153 fps=451 q=-0.0 size=N/A time=00:14:42.25 bitrate=N/A speed=18.8x    frame=21382 fps=451 q=-0.0 size=N/A time=00:14:51.80 bitrate=N/A speed=18.8x    frame=21634 fps=451 q=-0.0 size=N/A time=00:15:02.31 bitrate=N/A speed=18.8x    frame=21893 fps=452 q=-0.0 size=N/A time=00:15:13.12 bitrate=N/A speed=18.8x    frame=22149 fps=452 q=-0.0 size=N/A time=00:15:23.79 bitrate=N/A speed=18.9x    frame=22430 fps=453 q=-0.0 size=N/A time=00:15:35.51 bitrate=N/A speed=18.9x    frame=22711 fps=454 q=-0.0 size=N/A time=00:15:47.23 bitrate=N/A speed=18.9x    frame=22961 fps=454 q=-0.0 size=N/A time=00:15:57.66 bitrate=N/A speed=  19x    frame=23244 fps=455 q=-0.0 size=N/A time=00:16:09.46 bitrate=N/A speed=  19x    frame=23506 fps=456 q=-0.0 size=N/A time=00:16:20.39 bitrate=N/A speed=  19x    frame=23757 fps=456 q=-0.0 size=N/A time=00:16:30.86 bitrate=N/A speed=  19x    frame=23995 fps=456 q=-0.0 size=N/A time=00:16:40.79 bitrate=N/A speed=  19x    frame=24230 fps=456 q=-0.0 size=N/A time=00:16:50.59 bitrate=N/A speed=  19x    frame=24491 fps=457 q=-0.0 size=N/A time=00:17:01.47 bitrate=N/A speed=  19x    frame=24702 fps=456 q=-0.0 size=N/A time=00:17:10.27 bitrate=N/A speed=  19x    frame=24964 fps=457 q=-0.0 size=N/A time=00:17:21.20 bitrate=N/A speed=  19x    frame=25229 fps=457 q=-0.0 size=N/A time=00:17:32.25 bitrate=N/A speed=19.1x    frame=25513 fps=458 q=-0.0 size=N/A time=00:17:44.10 bitrate=N/A speed=19.1x    frame=25790 fps=459 q=-0.0 size=N/A time=00:17:55.65 bitrate=N/A speed=19.1x    frame=26034 fps=459 q=-0.0 size=N/A time=00:18:05.83 bitrate=N/A speed=19.1x    frame=26303 fps=460 q=-0.0 size=N/A time=00:18:17.05 bitrate=N/A speed=19.2x    frame=26550 fps=460 q=-0.0 size=N/A time=00:18:27.35 bitrate=N/A speed=19.2x    frame=26810 fps=460 q=-0.0 size=N/A time=00:18:38.20 bitrate=N/A speed=19.2x    frame=27057 fps=460 q=-0.0 size=N/A time=00:18:48.50 bitrate=N/A speed=19.2x    frame=27336 fps=461 q=-0.0 size=N/A time=00:19:00.13 bitrate=N/A speed=19.2x    frame=27568 fps=461 q=-0.0 size=N/A time=00:19:09.81 bitrate=N/A speed=19.2x    frame=27807 fps=461 q=-0.0 size=N/A time=00:19:19.78 bitrate=N/A speed=19.2x    frame=28085 fps=462 q=-0.0 size=N/A time=00:19:31.37 bitrate=N/A speed=19.3x    frame=28366 fps=462 q=-0.0 size=N/A time=00:19:43.09 bitrate=N/A speed=19.3x    frame=28636 fps=463 q=-0.0 size=N/A time=00:19:54.35 bitrate=N/A speed=19.3x    frame=28904 fps=463 q=-0.0 size=N/A time=00:20:05.53 bitrate=N/A speed=19.3x    frame=29188 fps=464 q=-0.0 size=N/A time=00:20:17.38 bitrate=N/A speed=19.4x    frame=29428 fps=464 q=-0.0 size=N/A time=00:20:27.39 bitrate=N/A speed=19.4x    frame=29710 fps=465 q=-0.0 size=N/A time=00:20:39.15 bitrate=N/A speed=19.4x    frame=29992 fps=465 q=-0.0 size=N/A time=00:20:50.91 bitrate=N/A speed=19.4x    frame=30283 fps=466 q=-0.0 size=N/A time=00:21:03.05 bitrate=N/A speed=19.4x    frame=30565 fps=467 q=-0.0 size=N/A time=00:21:14.81 bitrate=N/A speed=19.5x    frame=30842 fps=467 q=-0.0 size=N/A time=00:21:26.36 bitrate=N/A speed=19.5x    frame=31119 fps=468 q=-0.0 size=N/A time=00:21:37.92 bitrate=N/A speed=19.5x    frame=31368 fps=468 q=-0.0 size=N/A time=00:21:48.30 bitrate=N/A speed=19.5x    frame=31639 fps=468 q=-0.0 size=N/A time=00:21:59.60 bitrate=N/A speed=19.5x    frame=31903 fps=469 q=-0.0 size=N/A time=00:22:10.62 bitrate=N/A speed=19.5x    frame=32168 fps=469 q=-0.0 size=N/A time=00:22:21.67 bitrate=N/A speed=19.6x    frame=32434 fps=469 q=-0.0 size=N/A time=00:22:32.76 bitrate=N/A speed=19.6x    frame=32678 fps=469 q=-0.0 size=N/A time=00:22:42.94 bitrate=N/A speed=19.6x    frame=32920 fps=469 q=-0.0 size=N/A time=00:22:53.03 bitrate=N/A speed=19.6x    frame=33162 fps=469 q=-0.0 size=N/A time=00:23:03.13 bitrate=N/A speed=19.6x    frame=33398 fps=469 q=-0.0 size=N/A time=00:23:12.97 bitrate=N/A speed=19.6x    frame=33632 fps=469 q=-0.0 size=N/A time=00:23:22.73 bitrate=N/A speed=19.6x    frame=33855 fps=469 q=-0.0 size=N/A time=00:23:32.03 bitrate=N/A speed=19.6x    frame=34109 fps=469 q=-0.0 size=N/A time=00:23:42.62 bitrate=N/A speed=19.6x    [Parsed_psnr_10 @ 0000029319ea2d00] PSNR y:48.126730 u:51.030540 v:51.195883 average:48.913610 min:40.159360 max:inf
[out#0/null @ 000002930c2c3b80] video:14709KiB audio:267740KiB subtitle:0KiB other streams:0KiB global headers:0KiB muxing overhead: unknown
frame=34233 fps=469 q=-0.0 Lsize=N/A time=00:23:47.80 bitrate=N/A speed=19.6x    
